<svg xmlns="http://www.w3.org/2000/svg" viewBox="0 0 1200 1500" fill="none">
  <defs>
    <linearGradient id="bg" x1="102" y1="78" x2="1080" y2="1458" gradientUnits="userSpaceOnUse">
      <stop stop-color="#F8F9FF"/>
      <stop offset="0.38" stop-color="#81A7FF"/>
      <stop offset="1" stop-color="#150A37"/>
    </linearGradient>
  </defs>
  <rect width="1200" height="1500" rx="72" fill="url(#bg)"/>
  <circle cx="938" cy="236" r="170" fill="#FFFFFF" opacity="0.34"/>
  <rect x="826" y="194" width="230" height="390" rx="34" fill="#F7FAFF" opacity="0.92"/>
  <rect x="860" y="228" width="162" height="326" rx="24" fill="#E5EDFF"/>
  <circle cx="940" cy="312" r="44" stroke="#F8D76A" stroke-width="12"/>
  <path d="M942 380L904 448H940L912 514" stroke="#2A2267" stroke-width="12" stroke-linecap="round" stroke-linejoin="round"/>
  <path d="M256 1498C290 1252 384 1048 540 960C674 884 844 904 944 1014C1032 1110 1062 1268 1032 1498H256Z" fill="#EFD3D6"/>
  <path d="M746 962C834 1002 902 1086 942 1198C972 1280 980 1392 964 1498H1026C1052 1328 1046 1146 998 1028C952 914 864 824 748 786L746 962Z" fill="#A291C2" opacity="0.72"/>
  <circle cx="672" cy="1034" r="44" stroke="#FFE178" stroke-width="12"/>
  <path d="M672 1094V1322" stroke="#291E63" stroke-width="10" stroke-linecap="round"/>
  <path d="M718 1120L688 1178H718L694 1236" stroke="#291E63" stroke-width="10" stroke-linecap="round" stroke-linejoin="round"/>
  <path d="M626 1174L604 1220H630L610 1268" stroke="#291E63" stroke-width="8" stroke-linecap="round" stroke-linejoin="round"/>
</svg>
